<?xml version="1.0" encoding="UTF-8"?>
<svg id="Capa_2" data-name="Capa 2" xmlns="http://www.w3.org/2000/svg" viewBox="0 0 531.21 206.74">
  <defs>
    <style>
      .cls-1 {
        fill: #f4f4f4;
      }
    </style>
  </defs>
  <g id="Capa_1-2" data-name="Capa 1">
    <g>
      <g>
        <path class="cls-1" d="M10.36,0h15.44v102.22h-15.44V0Z"/>
        <path class="cls-1" d="M178.83,0h15.44v102.22h-15.44V0Z"/>
        <path class="cls-1" d="M347.3,0h15.44v102.22h-15.44V0Z"/>
        <path class="cls-1" d="M515.77,0h15.44v102.22h-15.44V0Z"/>
        <path class="cls-1" d="M121.35,56.43l-.12.2c-.41.71-.95.94-1.46,1.6l-.06.1-.12.2-.06.1c-1.46,1.6-2.43,2.8-3.81,4.03-1.39,1.23-2.77,2.46-4.12,3.86-1.29,1.29-2.6,2.16-4.2,3.54-.89.84-1.49,1.17-2.28,2.07-1.78,1.68-2.63,2.68-4.37,4.53-1.4,1.49-2.13,2.29-3.54,3.79-.18.3-.34.35-.61.59-2.52,1.8-3.94,3.55-6.48,4.66-.38.19-.66.43-1.14.56-.06.1-.16.04-.36-.07l-.1-.06c-1.31-1.02-2.39-2.19-3.41-2.78-.81-.47-1.25-1.13-1.74-1.68-.78-.99-1.51-2.09-1.21-3.54.19-.57.32-1.03.5-1.34.59-1.02,1.46-1.6,2.27-2.76,1.24-1.45,2.18-2.13,3.58-3.63.34-.35.51-.65.85-1,3.33-2.96,5.21-4.58,8.64-7.48,1.39-1.23,2.54-2.06,3.65-3.04,1.17-1.09,1.01-1.04,2.12-2.03.28-.25.5-.39.61-.59.18-.3.25-.67.37-.87.07-.36.1-.89.08-1.31-1.31-1.02-2.59-1.63-3.95-2.55l-1.12-.64c-.81-.47-1.53-.88-2.06-1.59-.14-.22-.29-.44-.59-.61-.75-.57-1.57-1.04-2.42-1.67-.3-.18-.39-.5-.59-.61-1.52-1.82-2.63-4.36-3.78-6.38-.87-1.31-.97-2.32-1.03-3.85-.02-1.37.18-2.2.73-3.37l.12-.2c.53-.91,1.34-1.39,1.81-2.21.63-.86,1.1-1.67,1.93-2.41.91-1.1,1.97-2.25,3.14-3.34,1.66-1.48,3.53-2.84,5.36-4.36.5-.39,1.15-.83,1.75-1.16,1.52-.75,3.13-1.44,4.65-2.19,3.09-1.6,6.97-.59,10.77-.83.42-.03.89.11,1.19.28s.45.4.75.57c.59.61.77,1.25.98,2.06.13.48.11.74-.18,1.25l-.23.41c-.35.61-.69.96-1.2,1.61-.73.8-1.13,1.25-2,1.83-1.79,1-3.02,1.24-4.59,2.09-1.53,1.01-3.21,1.81-4.39,3.16-1.07,1.15-2.22,1.97-3.27,2.86-.89.84-1.72,1.58-2.45,2.38-.61.59-1.37.97-1.78,1.68-.12.2-.23.41-.25.67-.21.83.55,1.4,1.08,2.11.25.28.65.51,1.06.75,1.63.94,3.14,1.13,5.2,1.78,1.92.43,3.77,1.22,5.39,2.16,1.83,1.05,3.59,2.47,5.05,4.4,1.17,1.49,2.07,3.22,2.06,5.12.08,1.27-.07,1.99-.61,3.17Z"/>
        <path class="cls-1" d="M294.72,20.02v2.23c-.59,1.64-1.41,2.93-2.7,4.11l-3.4,3.4c-.24.24-.59.59-.94.82-1.88.82-2.93,2.11-4.81,3.52-3.29,2.46-5.05,3.87-8.33,6.34-.94.7-1.41,1.06-2.35,1.76-.82.7-1.17,1.41-2.11,1.88-.24.12-.47.12-.7.12h-1.29c-.59.23-1.17.47-1.76.7-.47-.12-.82-.23-1.29-.35-.23.23-.59.47-.82.7-.12.59-.24,1.17-.24,1.64v1.64c-.12,2.46-.47,4.34-.7,7.16-.12.82,0,1.17-.12,1.99-.23,1.53-.35,2.46-.59,3.99-.12.59-.12,1.06-.12,1.64-.12,1.53,0,2.46-.12,3.99-.12,1.29-.23,1.99-.47,3.29-.12.94-.23,1.41-.35,2.35-.23,1.64-.35,2.7-.59,4.34-.12.94-.12,1.53-.24,2.46-.23,1.88-.59,2.82-.7,4.69,0,.59-.12,1.06-.12,1.53s.12.94.12,1.41-.12.94-.12,1.53c-.59,6.22-4.93,7.39-9.39,7.39-2.93,0-3.64-3.29-3.64-7.04,0-1.64.12-3.29.24-4.81.12-1.41.23-2.11.47-3.52.12-.47.12-.7.23-1.17.24-1.88.35-2.93.59-4.81.12-1.29.35-1.88.47-3.17.24-1.99.35-3.17.59-5.16,0-.47,0-.82.12-1.29.35-2.46.47-3.87.82-6.34.12-.59.12-1.06.23-1.64.23-1.29.23-1.88.47-3.17.23-1.29.35-1.88.47-3.17.12-.82.23-1.17.23-1.99.12-2.7.12-4.11.12-6.81.12-5.05,0-7.98.12-13.03,0-1.29.24-1.88.35-3.17.12-.94.12-1.53.12-2.46v-9.27c0-.59,0-1.06.12-1.53q1.17-1.88,3.17-3.29c1.06-.12,2.35,0,3.52-.35.94-.24,2.11-.35,3.05-.7,1.99-.47,3.64-.47,5.98-.82.47-.12.7-.23,1.17-.23,1.64-.12,2.7-.23,4.23-.23h1.06c2.35.12,3.99.47,5.98.7,1.17,0,4.93.94,5.75,1.53,1.29.82,2.46,1.64,3.76,2.46.12.12.12.23.23.23.23.35.59.7.82.94.7,1.17.7,2.7,1.53,3.75.82.94,1.41,1.99,1.88,3.29ZM283.34,19.55c-.82-1.64-2.46-2.23-4.22-2.93-2.35,0-4.81-.24-7.39-.24-1.53,0-3.17.12-4.69.35-.59.47-1.41.59-2.11,1.29-.24.47-.47,1.06-.82,1.64.23.7.47,1.29.59,1.88v10.56c0,.24,0,.59.12.82.12.24.23.47.47.47.12,0,.23.12.35.12s.35-.12.47-.24c1.64-1.29,3.29-2.7,5.05-3.87,1.06-.59,2.11-1.17,3.17-1.88,2.7-1.88,5.28-4.11,7.86-6.22.35-.24.59-.59.82-.82.12-.24.23-.59.35-.94Z"/>
        <path class="cls-1" d="M457.21,84.33c0,.7-.35,1.06-1.06,2.11-.35.59-2.23,1.29-2.93,1.29-3.17.23-5.4.47-7.98.47-1.41,0-2.93-.12-4.81-.35-2.82-.35-4.34-1.29-6.81-2.82-1.17-.7-1.41-1.64-2.23-2.7-1.53-1.99-2.7-3.4-3.75-5.28-.94-1.76-1.88-3.52-2.7-5.4-.94-1.76-1.64-3.75-1.99-5.63-.24-1.06-.59-2.11-.7-3.17-.12-1.06-.24-2.11-.7-3.17-.12-.24,0-.59-.12-.82,0-1.64-.12-3.05-.12-4.69v-1.29c.12-1.76.35-2.7.59-4.46.12-1.06.35-1.76.35-2.82.35-6.34,3.29-11.97,8.57-17.37,3.05-3.17,3.99-4.22,7.16-6.22,3.29-2.23,6.57-2.82,9.15-4.22.23-.24.35-.24.7-.24.23,0,.35,0,.59.24,1.41.94,2.46,1.17,3.52,2.58.59.59.24,1.29.47,2.23.12.59.35.82.59,1.53,0,.12.12.23.12.35v.12c-.12.24-.12.35-.23.7-.35.7-.35,1.17-.94,1.88-4.93,5.4-10.21,3.99-13.73,11.15-1.76,3.17-3.29,9.51-3.75,14.67v1.41c0,1.53.23,2.82.35,4.69.12.59.12.94.23,1.53.47,2.11.47,3.4,1.06,5.52.59,1.99,1.29,2.93,1.99,4.81.24.47.24.82.47,1.17,1.17,1.76,1.76,2.93,3.29,4.34.7.59,1.29.7,2.23.82,2.11.23,2.82.59,4.81,1.06,1.88.47,3.17.24,4.93,1.17,1.41.7,1.88,1.76,2.82,2.7.35.94.59,1.64.59,2.11Z"/>
      </g>
      <g>
        <path class="cls-1" d="M2.58,141.66h4.86v23.47H2.58v-23.47Z"/>
        <path class="cls-1" d="M23.88,145.91h-7.08v-4.25h18.95v4.25h-7.04v19.22h-4.83v-19.22Z"/>
        <path class="cls-1" d="M44.22,144.31c0-1.77,1.33-3.06,3.03-3.06s3.13,1.36,3.13,2.99c0,.92-.51,1.84-.75,2.31l-2.38,4.32h-3.09l1.6-3.88c-1.26-.75-1.53-1.87-1.53-2.69Z"/>
        <path class="cls-1" d="M58.47,161.25l2.99-3.27c1.73,2.35,3.81,3.27,5.82,3.27s3.47-.95,3.47-2.55c0-2.11-1.36-2.75-4.25-3.81-4.46-1.6-6.53-3.4-6.53-7.08,0-3.88,3.37-6.53,7.96-6.53,3.67,0,6.12,1.5,7.82,3.4l-2.75,3.13c-1.5-1.63-3.4-2.24-5-2.24-1.73,0-2.89.75-2.89,2.07,0,1.53,1.33,2.25,4.01,3.13,4.35,1.46,6.73,3.37,6.73,7.48,0,4.35-3.4,7.28-8.47,7.28-3.37,0-6.8-1.39-8.91-4.29Z"/>
        <path class="cls-1" d="M98.33,161.25l2.99-3.27c1.73,2.35,3.81,3.27,5.82,3.27s3.47-.95,3.47-2.55c0-2.11-1.36-2.75-4.25-3.81-4.46-1.6-6.53-3.4-6.53-7.08,0-3.88,3.37-6.53,7.96-6.53,3.67,0,6.12,1.5,7.82,3.4l-2.75,3.13c-1.5-1.63-3.4-2.24-5-2.24-1.73,0-2.89.75-2.89,2.07,0,1.53,1.33,2.25,4.01,3.13,4.35,1.46,6.73,3.37,6.73,7.48,0,4.35-3.4,7.28-8.47,7.28-3.37,0-6.8-1.39-8.91-4.29Z"/>
        <path class="cls-1" d="M125.88,141.66h4.86v23.47h-4.86v-23.47Z"/>
        <path class="cls-1" d="M142.38,141.66h6.63l3.91,10.1c.37.95,1.09,2.86,1.33,4.22h.1c.24-1.36.95-3.26,1.33-4.22l3.91-10.1h6.6v23.47h-4.69v-11.7c0-1.02-.03-3.44.03-4.56l-.1-.03c-.17.78-.88,2.82-1.33,3.95l-3.16,7.89h-5.27l-3.16-7.89c-.44-1.12-1.16-3.16-1.33-3.95l-.1.03c.07,1.12.03,3.54.03,4.56v11.7h-4.73v-23.47Z"/>
        <path class="cls-1" d="M177.86,141.66h8.06c5.2,0,8.64,3.09,8.64,7.79s-3.5,7.92-8.64,7.92h-3.23v7.75h-4.83v-23.47ZM185.34,153.25c2.72,0,4.29-1.36,4.29-3.81s-1.53-3.64-4.29-3.64h-2.65v7.45h2.65Z"/>
        <path class="cls-1" d="M204.42,141.66h4.86v19.39h10.03v4.08h-14.9v-23.47Z"/>
        <path class="cls-1" d="M229.29,141.66h17.79v4.15h-12.92v5.31h8.67v4.08h-8.67v5.85h12.92v4.08h-17.79v-23.47Z"/>
        <path class="cls-1" d="M256.56,162.78c0-1.77,1.36-3.03,3.03-3.03,1.77,0,3.16,1.36,3.16,2.99,0,.92-.51,1.8-.78,2.31l-2.35,4.32h-3.13l1.63-3.88c-1.29-.75-1.56-1.87-1.56-2.72Z"/>
        <path class="cls-1" d="M287.96,141.66h8.06c5.2,0,8.64,3.09,8.64,7.79s-3.5,7.92-8.64,7.92h-3.23v7.75h-4.83v-23.47ZM295.44,153.25c2.72,0,4.29-1.36,4.29-3.81s-1.53-3.64-4.29-3.64h-2.65v7.45h2.65Z"/>
        <path class="cls-1" d="M314.52,141.66h8.84c5.03,0,8.33,2.82,8.33,7.21,0,3.16-1.5,5.37-4.56,6.53l6.19,9.73h-5.54l-5.37-8.88c-.44.03-.88.03-1.33.03h-1.7v8.84h-4.86v-23.47ZM322.82,152.13c2.55,0,4.05-1.19,4.05-3.23s-1.39-3.09-4.05-3.09h-3.44v6.33h3.44Z"/>
        <path class="cls-1" d="M349.11,141.66h5.34l9.29,23.47h-5.14l-1.94-5.2h-9.76l-1.87,5.2h-5.07l9.15-23.47ZM355.17,155.84l-3.4-9.18h-.07l-3.3,9.18h6.77Z"/>
        <path class="cls-1" d="M371.56,153.39c0-7.07,5.31-12.11,12.48-12.11,4.69,0,8.81,2.31,10.85,6.05l-3.84,2.18c-1.36-2.52-3.95-3.88-7.01-3.88-4.39,0-7.48,3.06-7.48,7.75s3.13,7.79,7.48,7.79c3.13,0,5.61-1.67,6.9-4.32l4.01,2.14c-1.94,3.98-6.05,6.53-10.92,6.53-7.14,0-12.48-5.07-12.48-12.14Z"/>
        <path class="cls-1" d="M410.58,145.91h-7.08v-4.25h18.95v4.25h-7.04v19.22h-4.83v-19.22Z"/>
        <path class="cls-1" d="M431.8,141.66h4.86v23.47h-4.86v-23.47Z"/>
        <path class="cls-1" d="M447.07,153.39c0-7.07,5.31-12.11,12.48-12.11,4.69,0,8.81,2.31,10.85,6.05l-3.84,2.18c-1.36-2.52-3.95-3.88-7.01-3.88-4.39,0-7.48,3.06-7.48,7.75s3.13,7.79,7.48,7.79c3.13,0,5.61-1.67,6.9-4.32l4.01,2.14c-1.94,3.98-6.05,6.53-10.92,6.53-7.14,0-12.48-5.07-12.48-12.14Z"/>
        <path class="cls-1" d="M487.86,141.66h5.34l9.29,23.47h-5.14l-1.94-5.2h-9.76l-1.87,5.2h-5.07l9.15-23.47ZM493.91,155.84l-3.4-9.18h-.07l-3.3,9.18h6.77Z"/>
        <path class="cls-1" d="M511.53,141.66h4.86v19.39h10.03v4.08h-14.9v-23.47Z"/>
        <path class="cls-1" d="M9.15,182.87h5.34l9.29,23.47h-5.14l-1.94-5.2H6.94l-1.87,5.2H0l9.15-23.47ZM15.2,197.05l-3.4-9.18h-.07l-3.3,9.18h6.77Z"/>
        <path class="cls-1" d="M32.82,182.87h6.12l6.29,11.67c.85,1.6,1.9,3.43,2.35,4.83l.07-.07c-.14-1.12-.17-3.06-.17-5v-11.43h4.76v23.47h-6.12l-6.29-11.7c-.85-1.6-1.87-3.4-2.35-4.8l-.07.07c.14,1.12.2,3.03.2,4.97v11.46h-4.8v-23.47Z"/>
        <path class="cls-1" d="M63.88,182.87h8.2c7.62,0,12.45,4.39,12.45,11.73s-4.83,11.73-12.45,11.73h-8.2v-23.47ZM71.87,202.28c4.83,0,7.72-2.69,7.72-7.69s-2.92-7.62-7.72-7.62h-3.13v15.3h3.13Z"/>
        <path class="cls-1" d="M108.1,194.6c0-7.07,5.31-12.11,12.48-12.11,4.69,0,8.81,2.31,10.85,6.05l-3.84,2.18c-1.36-2.52-3.95-3.88-7.01-3.88-4.39,0-7.48,3.06-7.48,7.75s3.13,7.79,7.48,7.79c3.13,0,5.61-1.67,6.9-4.32l4.01,2.14c-1.94,3.98-6.05,6.53-10.92,6.53-7.14,0-12.48-5.07-12.48-12.14Z"/>
        <path class="cls-1" d="M142.31,182.87h4.86v19.39h10.03v4.08h-14.9v-23.47Z"/>
        <path class="cls-1" d="M167.18,182.87h17.79v4.15h-12.92v5.31h8.67v4.08h-8.67v5.85h12.92v4.08h-17.79v-23.47Z"/>
        <path class="cls-1" d="M202.18,182.87h5.34l9.29,23.47h-5.14l-1.94-5.2h-9.76l-1.87,5.2h-5.07l9.15-23.47ZM208.23,197.05l-3.4-9.18h-.07l-3.3,9.18h6.77Z"/>
        <path class="cls-1" d="M225.85,182.87h8.84c5.03,0,8.33,2.82,8.33,7.21,0,3.16-1.5,5.37-4.56,6.53l6.19,9.73h-5.54l-5.37-8.88c-.44.03-.88.03-1.33.03h-1.7v8.84h-4.86v-23.47ZM234.15,193.34c2.55,0,4.05-1.19,4.05-3.23s-1.39-3.09-4.05-3.09h-3.44v6.33h3.44Z"/>
        <path class="cls-1" d="M253.1,203.75c0-1.63,1.39-2.99,3.06-2.99s3.06,1.36,3.06,2.99-1.39,2.99-3.06,2.99-3.06-1.36-3.06-2.99Z"/>
        <path class="cls-1" d="M284.42,182.87h4.86v23.47h-4.86v-23.47Z"/>
        <path class="cls-1" d="M305.71,187.12h-7.08v-4.25h18.95v4.25h-7.04v19.22h-4.83v-19.22Z"/>
        <path class="cls-1" d="M326.05,185.52c0-1.77,1.33-3.06,3.03-3.06s3.13,1.36,3.13,2.99c0,.92-.51,1.84-.75,2.31l-2.38,4.32h-3.09l1.6-3.88c-1.26-.75-1.53-1.87-1.53-2.69Z"/>
        <path class="cls-1" d="M340.31,202.46l2.99-3.27c1.73,2.35,3.81,3.27,5.82,3.27s3.47-.95,3.47-2.55c0-2.11-1.36-2.75-4.25-3.81-4.46-1.6-6.53-3.4-6.53-7.08,0-3.88,3.37-6.53,7.96-6.53,3.67,0,6.12,1.5,7.82,3.4l-2.75,3.13c-1.5-1.63-3.4-2.24-5-2.24-1.73,0-2.89.75-2.89,2.07,0,1.53,1.33,2.25,4.01,3.13,4.35,1.46,6.73,3.37,6.73,7.48,0,4.35-3.4,7.28-8.47,7.28-3.37,0-6.8-1.39-8.91-4.29Z"/>
        <path class="cls-1" d="M382.24,182.87h4.86v23.47h-4.86v-23.47Z"/>
        <path class="cls-1" d="M396.67,202.46l2.99-3.27c1.73,2.35,3.81,3.27,5.82,3.27s3.47-.95,3.47-2.55c0-2.11-1.36-2.75-4.25-3.81-4.46-1.6-6.53-3.4-6.53-7.08,0-3.88,3.37-6.53,7.96-6.53,3.67,0,6.12,1.5,7.82,3.4l-2.75,3.13c-1.5-1.63-3.4-2.24-5-2.24-1.73,0-2.89.75-2.89,2.07,0,1.53,1.33,2.25,4.01,3.13,4.35,1.46,6.73,3.37,6.73,7.48,0,4.35-3.4,7.28-8.47,7.28-3.37,0-6.8-1.39-8.91-4.29Z"/>
        <path class="cls-1" d="M424.22,182.87h4.86v23.47h-4.86v-23.47Z"/>
        <path class="cls-1" d="M440.71,182.87h8.06c5.2,0,8.64,3.09,8.64,7.79s-3.5,7.92-8.64,7.92h-3.23v7.75h-4.83v-23.47ZM448.2,194.46c2.72,0,4.29-1.36,4.29-3.81s-1.53-3.64-4.29-3.64h-2.65v7.45h2.65Z"/>
        <path class="cls-1" d="M467.28,182.87h4.86v23.47h-4.86v-23.47Z"/>
        <path class="cls-1" d="M482.55,194.6c0-7.07,5.31-12.11,12.48-12.11,4.69,0,8.81,2.31,10.85,6.05l-3.84,2.18c-1.36-2.52-3.95-3.88-7.01-3.88-4.39,0-7.48,3.06-7.48,7.75s3.13,7.79,7.48,7.79c3.13,0,5.61-1.67,6.9-4.32l4.01,2.14c-1.94,3.98-6.05,6.53-10.92,6.53-7.14,0-12.48-5.07-12.48-12.14Z"/>
        <path class="cls-1" d="M516.77,182.87h4.86v23.47h-4.86v-23.47Z"/>
      </g>
    </g>
  </g>
</svg>